<svg fill="currentColor" data-testid="BottleIcon" xmlns="http://www.w3.org/2000/svg" viewBox="0 0 437.897 437.897">
    <g>
        <g>
            <path d="M272.357,139.637c-6.261-3.239-14.794-7.652-16.003-9.889V78.485h7.852c2.761,0,5-2.239,5-5V42.698c0-2.761-2.239-5-5-5
			h-11.809l2.634-32.291c0.114-1.393-0.36-2.769-1.307-3.795C252.778,0.584,251.445,0,250.048,0h-62.2
			c-1.397,0-2.73,0.584-3.676,1.611c-0.947,1.027-1.421,2.403-1.307,3.795l2.634,32.291H173.69c-2.761,0-5,2.239-5,5v30.787
			c0,2.761,2.239,5,5,5h7.853v51.263c-1.21,2.237-9.742,6.65-16.003,9.889c-21.703,11.226-54.499,28.19-54.499,64.325v202.804
			c0,17.165,13.965,31.13,31.13,31.13h55.216h43.124h55.215c17.166,0,31.13-13.965,31.13-31.13V203.962
			C326.856,167.828,294.06,150.863,272.357,139.637z M244.624,10l-2.26,27.698h-46.833L193.272,10H244.624z M178.69,68.485V47.698
			h80.516v20.787H178.69z M239.038,78.485L237.6,96.13h-37.302l-1.438-17.646H239.038z M170.134,148.519
			c12.892-6.668,21.409-11.074,21.409-18.514v-26.11c0.9,1.347,2.42,2.235,4.146,2.235h46.52c1.726,0,3.246-0.888,4.146-2.235v26.11
			c0,7.439,8.517,11.845,21.409,18.514c20.719,10.717,49.094,25.395,49.094,55.443v13.994H298.8v-13.994c0-2.761-2.239-5-5-5
			H144.097c-2.761,0-5,2.239-5,5v13.994H121.04v-13.994C121.04,173.913,149.415,159.236,170.134,148.519z M288.8,208.962v170.996
			H149.097V208.962H288.8z M295.726,427.897h-55.215h-43.124H142.17c-11.651,0-21.13-9.479-21.13-21.13V227.956h18.057v157.002
			c0,2.761,2.239,5,5,5H293.8c2.761,0,5-2.239,5-5V227.956h18.057v178.811C316.856,418.418,307.377,427.897,295.726,427.897z"/>
            <g>
                <g>
                    <g>
                        <path d="M200.326,313.741c-9.583,0-17.379-7.796-17.379-17.378c0-9.583,7.796-17.379,17.379-17.379
						c9.583,0,17.38,7.796,17.38,17.379C217.707,305.945,209.91,313.741,200.326,313.741z M200.326,288.983
						c-4.068,0-7.379,3.311-7.379,7.379c0,4.068,3.31,7.378,7.379,7.378c4.069,0,7.38-3.31,7.38-7.378
						C207.707,292.294,204.396,288.983,200.326,288.983z"/>
                    </g>
                    <g>
                        <path d="M237.569,313.741c-9.583,0-17.379-7.796-17.379-17.378c0-9.583,7.796-17.379,17.379-17.379
						c9.583,0,17.378,7.796,17.378,17.379C254.947,305.945,247.151,313.741,237.569,313.741z M237.569,288.983
						c-4.069,0-7.379,3.311-7.379,7.379c0,4.068,3.31,7.378,7.379,7.378c4.068,0,7.378-3.31,7.378-7.378
						C244.947,292.294,241.637,288.983,237.569,288.983z"/>
                    </g>
                </g>
                <path d="M261.028,255.518c-6.312-5.554-22.276-14.954-42.074-14.954c-23.952,0-39.27,12.462-42.094,14.958
				c-13.698,12.081-21.554,29.479-21.554,47.731c0,13.556,11.01,24.585,24.544,24.585h5.733v8.718c0,6.506,5.293,11.8,11.8,11.8
				c4.807,0,8.944-2.892,10.783-7.023c1.838,4.131,5.975,7.023,10.781,7.023c4.806,0,8.943-2.892,10.782-7.023
				c1.838,4.131,5.975,7.023,10.781,7.023c6.507,0,11.801-5.293,11.801-11.8v-8.718h5.735c13.534,0,24.544-11.028,24.544-24.585
				C282.59,285.003,274.733,267.606,261.028,255.518z M258.046,317.837h-10.735c-2.761,0-5,2.239-5,5v13.718
				c0,0.992-0.808,1.8-1.801,1.8c-0.993,0-1.801-0.808-1.801-1.8v-6.918c0-2.761-2.239-5-5-5h-7.96c-2.761,0-5,2.239-5,5v6.918
				c0,0.992-0.808,1.8-1.801,1.8c-0.993,0-1.8-0.808-1.8-1.8v-6.918c0-2.761-2.239-5-5-5h-7.961c-2.761,0-5,2.239-5,5v6.918
				c0,0.992-0.809,1.8-1.802,1.8c-0.993,0-1.8-0.808-1.8-1.8v-13.718c0-2.761-2.239-5-5-5h-10.733
				c-8.02,0-14.544-6.543-14.544-14.585c0-15.384,6.622-30.048,18.172-40.234c2.354-2.08,15.127-12.455,35.476-12.455
				c16.853,0,30.57,8.151,35.463,12.457c11.549,10.187,18.172,24.851,18.172,40.232C272.59,311.295,266.066,317.837,258.046,317.837
				z"/>
            </g>
        </g>
    </g>
</svg>
